<svg xmlns="http://www.w3.org/2000/svg"  viewBox="0 0 50 50" width="50px" height="50px"><path d="M 22.958984 1 A 1.0001 1.0001 0 0 0 22.552734 1.1054688 L 15.552734 4.6054688 A 1.0001 1.0001 0 0 0 15 5.5 L 15 7.171875 L 9.5253906 10.119141 A 1.0001 1.0001 0 0 0 9.5214844 10.123047 A 1.0001 1.0001 0 0 0 9.4394531 10.171875 A 1.0001 1.0001 0 0 0 9.3984375 10.201172 A 1.0001 1.0001 0 0 0 9.359375 10.230469 A 1.0001 1.0001 0 0 0 9.3554688 10.234375 A 1.0001 1.0001 0 0 0 9.2851562 10.300781 A 1.0001 1.0001 0 0 0 9.2675781 10.320312 A 1.0001 1.0001 0 0 0 9.2207031 10.373047 A 1.0001 1.0001 0 0 0 9.2167969 10.378906 A 1.0001 1.0001 0 0 0 9.1621094 10.455078 A 1.0001 1.0001 0 0 0 9.1328125 10.503906 A 1.0001 1.0001 0 0 0 9.1113281 10.541016 A 1.0001 1.0001 0 0 0 9.109375 10.546875 A 1.0001 1.0001 0 0 0 9.0703125 10.632812 A 1.0001 1.0001 0 0 0 9.0683594 10.638672 A 1.0001 1.0001 0 0 0 9.0390625 10.726562 A 1.0001 1.0001 0 0 0 9.0371094 10.732422 A 1.0001 1.0001 0 0 0 9.015625 10.824219 A 1.0001 1.0001 0 0 0 9 11 A 1.0001 1.0001 0 0 0 9 11.023438 L 9 19.632812 L 6.5527344 20.855469 A 1.0001 1.0001 0 0 0 6 21.75 L 6 26.25 A 1.0001 1.0001 0 0 0 6.5527344 27.144531 L 8 27.867188 L 8 31 A 1.0001 1.0001 0 0 0 8.5527344 31.894531 L 9 32.117188 L 9 41 A 1.0001 1.0001 0 0 0 9.5214844 41.876953 L 20.458984 47.841797 L 20.521484 47.876953 A 1.0001 1.0001 0 0 0 20.527344 47.878906 A 1.0001 1.0001 0 0 0 20.611328 47.919922 A 1.0001 1.0001 0 0 0 20.705078 47.955078 A 1.0001 1.0001 0 0 0 20.900391 47.994141 A 1.0001 1.0001 0 0 0 21.101562 47.994141 A 1.0001 1.0001 0 0 0 21.199219 47.978516 A 1.0001 1.0001 0 0 0 21.390625 47.919922 A 1.0001 1.0001 0 0 0 21.480469 47.875 A 1.0001 1.0001 0 0 0 21.515625 47.857422 L 27.033203 44.542969 L 29.599609 45.666016 A 1.0001 1.0001 0 0 0 29.625 45.675781 A 1.0001 1.0001 0 0 0 29.662109 45.689453 A 1.0001 1.0001 0 0 0 29.712891 45.707031 A 1.0001 1.0001 0 0 0 29.761719 45.71875 A 1.0001 1.0001 0 0 0 29.816406 45.732422 A 1.0001 1.0001 0 0 0 29.839844 45.736328 A 1.0001 1.0001 0 0 0 30.228516 45.722656 A 1.0001 1.0001 0 0 0 30.234375 45.720703 A 1.0001 1.0001 0 0 0 30.324219 45.695312 A 1.0001 1.0001 0 0 0 30.333984 45.691406 A 1.0001 1.0001 0 0 0 30.416016 45.658203 A 1.0001 1.0001 0 0 0 30.419922 45.65625 A 1.0001 1.0001 0 0 0 30.505859 45.611328 A 1.0001 1.0001 0 0 0 30.523438 45.601562 L 41.523438 38.851562 A 1.0001 1.0001 0 0 0 42 38 L 42 32.537109 A 1.0001 1.0001 0 0 0 42 32.5 L 42 25.65625 A 1.0001 1.0001 0 0 0 41.384766 24.576172 L 36 22.332031 L 36 9.0527344 A 1.0001 1.0001 0 0 0 35.980469 8.8007812 A 1.0001 1.0001 0 0 0 35.976562 8.7890625 A 1.0001 1.0001 0 0 0 35.921875 8.6113281 A 1.0001 1.0001 0 0 0 35.919922 8.609375 A 1.0001 1.0001 0 0 0 35.826172 8.4355469 A 1.0001 1.0001 0 0 0 35.816406 8.4238281 A 1.0001 1.0001 0 0 0 35.765625 8.3554688 A 1.0001 1.0001 0 0 0 35.761719 8.3515625 A 1.0001 1.0001 0 0 0 35.541016 8.1582031 A 1.0001 1.0001 0 0 0 35.525391 8.1503906 A 1.0001 1.0001 0 0 0 35.384766 8.0761719 L 28 5.0019531 L 28 3.5058594 A 1.0001 1.0001 0 0 0 28 3.5 A 1.0001 1.0001 0 0 0 27.994141 3.40625 A 1.0001 1.0001 0 0 0 27.994141 3.4003906 A 1.0001 1.0001 0 0 0 27.957031 3.2109375 A 1.0001 1.0001 0 0 0 27.955078 3.2050781 A 1.0001 1.0001 0 0 0 27.701172 2.7871094 A 1.0001 1.0001 0 0 0 27.699219 2.7851562 A 1.0001 1.0001 0 0 0 27.697266 2.7832031 A 1.0001 1.0001 0 0 0 27.625 2.7207031 A 1.0001 1.0001 0 0 0 27.621094 2.7167969 A 1.0001 1.0001 0 0 0 27.458984 2.6113281 A 1.0001 1.0001 0 0 0 27.453125 2.609375 A 1.0001 1.0001 0 0 0 27.384766 2.578125 A 1.0001 1.0001 0 0 0 27.363281 2.5683594 A 1.0001 1.0001 0 0 0 27.351562 2.5644531 L 23.351562 1.0644531 A 1.0001 1.0001 0 0 0 22.958984 1 z M 23.058594 3.0898438 L 24.501953 3.6308594 L 19.552734 6.1054688 A 1.0001 1.0001 0 0 0 19 7 L 19 10.382812 L 17 9.3828125 L 17 6.1171875 L 23.058594 3.0898438 z M 26 5.1171875 L 26 5.4824219 A 1.0001 1.0001 0 0 0 26 5.8359375 L 26 7.6503906 L 21 10.330078 L 21 7.6171875 L 26 5.1171875 z M 28 7.1699219 L 32.736328 9.140625 L 30.777344 10.259766 L 20.988281 15.855469 L 20.986328 15.855469 L 14.636719 12.390625 L 12.097656 11.005859 L 15 9.4433594 L 15 10 A 1.0001 1.0001 0 0 0 15.552734 10.894531 L 19.552734 12.894531 A 1.0001 1.0001 0 0 0 19.638672 12.931641 A 1.0001 1.0001 0 0 0 19.716797 12.957031 A 1.0001 1.0001 0 0 0 19.740234 12.964844 A 1.0001 1.0001 0 0 0 19.830078 12.984375 A 1.0001 1.0001 0 0 0 19.888672 12.992188 A 1.0001 1.0001 0 0 0 19.929688 12.998047 A 1.0001 1.0001 0 0 0 20.03125 13 A 1.0001 1.0001 0 0 0 20.037109 13 A 1.0001 1.0001 0 0 0 20.128906 12.990234 A 1.0001 1.0001 0 0 0 20.324219 12.945312 A 1.0001 1.0001 0 0 0 20.326172 12.945312 A 1.0001 1.0001 0 0 0 20.330078 12.943359 A 1.0001 1.0001 0 0 0 20.416016 12.908203 A 1.0001 1.0001 0 0 0 20.421875 12.90625 A 1.0001 1.0001 0 0 0 20.445312 12.894531 A 1.0001 1.0001 0 0 0 20.472656 12.880859 L 27.472656 9.1308594 A 1.0001 1.0001 0 0 0 28 8.25 L 28 7.1699219 z M 34 10.724609 L 34 22.84375 A 1.0001 1.0001 0 0 0 34 23.148438 L 34 28.949219 A 1.0001 1.0001 0 0 0 35.498047 29.816406 L 40 27.228516 L 40 30.882812 L 38.447266 30.105469 A 1.0001 1.0001 0 0 0 37.962891 30 A 1.0001 1.0001 0 0 0 37.496094 30.136719 L 25.496094 37.136719 A 1.0001 1.0001 0 0 0 25 38 L 25 43 A 1.0001 1.0001 0 0 0 25.076172 43.384766 L 22 45.232422 L 22 37 L 22 17.582031 L 22 17.580078 L 30 13.009766 L 34 10.724609 z M 11 12.683594 L 20 17.59375 L 20 37 L 20 45.316406 L 11 40.40625 L 11 33.117188 L 12.552734 33.894531 A 1.0001 1.0001 0 0 0 12.638672 33.931641 A 1.0001 1.0001 0 0 0 12.716797 33.957031 A 1.0001 1.0001 0 0 0 12.740234 33.964844 A 1.0001 1.0001 0 0 0 12.830078 33.984375 A 1.0001 1.0001 0 0 0 13.324219 33.945312 A 1.0001 1.0001 0 0 0 13.326172 33.945312 A 1.0001 1.0001 0 0 0 13.330078 33.943359 A 1.0001 1.0001 0 0 0 13.416016 33.908203 A 1.0001 1.0001 0 0 0 13.421875 33.90625 A 1.0001 1.0001 0 0 0 13.490234 33.871094 L 13.511719 33.859375 A 1.0001 1.0001 0 0 0 13.515625 33.857422 L 17.490234 31.621094 A 1.0001 1.0001 0 0 0 18 30.75 L 18 25 L 18 23 L 18 20.255859 A 1.0001 1.0001 0 0 0 18 20.25 A 1.0001 1.0001 0 0 0 17.994141 20.15625 A 1.0001 1.0001 0 0 0 17.994141 20.150391 A 1.0001 1.0001 0 0 0 17.957031 19.960938 A 1.0001 1.0001 0 0 0 17.955078 19.955078 A 1.0001 1.0001 0 0 0 17.701172 19.537109 A 1.0001 1.0001 0 0 0 17.699219 19.535156 A 1.0001 1.0001 0 0 0 17.697266 19.533203 A 1.0001 1.0001 0 0 0 17.625 19.470703 A 1.0001 1.0001 0 0 0 17.621094 19.466797 A 1.0001 1.0001 0 0 0 17.458984 19.361328 A 1.0001 1.0001 0 0 0 17.453125 19.359375 A 1.0001 1.0001 0 0 0 17.384766 19.328125 A 1.0001 1.0001 0 0 0 17.363281 19.318359 A 1.0001 1.0001 0 0 0 17.351562 19.314453 L 13.351562 17.814453 A 1.0001 1.0001 0 0 0 12.958984 17.75 A 1.0001 1.0001 0 0 0 12.552734 17.855469 L 11 18.632812 L 11 12.683594 z M 27 18 L 24.5 19.25 L 24.5 22 L 27 20.667969 L 27 18 z M 13.058594 19.839844 L 14.501953 20.380859 L 10.552734 22.355469 A 1.0001 1.0001 0 0 0 10 23.25 L 10 26.632812 L 9.4472656 26.355469 A 1.0001 1.0001 0 0 0 9.4296875 26.347656 L 8 25.632812 L 8 22.367188 L 10.302734 21.216797 A 1.0001 1.0001 0 0 0 10.576172 21.080078 L 13.058594 19.839844 z M 16 21.867188 L 16 23 L 16 25 L 16 30.166016 L 14 31.291016 L 14 27.25 A 1.0001 1.0001 0 0 0 12.552734 26.355469 L 12 26.632812 L 12 23.867188 L 16 21.867188 z M 36 24.5 L 38.744141 25.644531 L 36 27.222656 L 36 24.5 z M 10 28.867188 L 10.552734 29.144531 A 1.0001 1.0001 0 0 0 10.638672 29.181641 A 1.0001 1.0001 0 0 0 10.716797 29.207031 A 1.0001 1.0001 0 0 0 10.726562 29.210938 A 1.0001 1.0001 0 0 0 10.738281 29.214844 A 1.0001 1.0001 0 0 0 10.740234 29.214844 A 1.0001 1.0001 0 0 0 10.744141 29.214844 A 1.0001 1.0001 0 0 0 10.773438 29.222656 A 1.0001 1.0001 0 0 0 10.929688 29.248047 A 1.0001 1.0001 0 0 0 10.935547 29.248047 A 1.0001 1.0001 0 0 0 11.029297 29.25 A 1.0001 1.0001 0 0 0 11.03125 29.25 A 1.0001 1.0001 0 0 0 11.037109 29.25 A 1.0001 1.0001 0 0 0 11.136719 29.240234 A 1.0001 1.0001 0 0 0 11.226562 29.224609 A 1.0001 1.0001 0 0 0 11.232422 29.222656 A 1.0001 1.0001 0 0 0 11.234375 29.222656 A 1.0001 1.0001 0 0 0 11.244141 29.220703 A 1.0001 1.0001 0 0 0 11.421875 29.15625 A 1.0001 1.0001 0 0 0 11.447266 29.144531 L 12 28.867188 L 12 31.382812 L 10.582031 30.673828 A 1.0001 1.0001 0 0 0 10.294922 30.529297 L 10 30.382812 L 10 28.867188 z M 38.037109 32.136719 L 38.910156 32.574219 L 29.492188 38.138672 A 1.0001 1.0001 0 0 0 29 39 L 29 43.220703 L 27.490234 42.560547 A 1.0001 1.0001 0 0 0 27.246094 42.453125 L 27 42.345703 L 27 38.574219 L 38.037109 32.136719 z M 40 34.251953 L 40 35 L 40 37.439453 L 31 42.962891 L 31 39.570312 L 40 34.251953 z"/></svg>