<svg version="1.1" id="Layer_1" xmlns="http://www.w3.org/2000/svg" xmlns:xlink="http://www.w3.org/1999/xlink" x="0px" y="0px"
	 width="100%" viewBox="0 0 288 101" enable-background="new 0 0 288 101" xml:space="preserve">
<path fill="#C00516" opacity="1.000000" stroke="none" 
	d="
M1.000000,90.000000 
	C1.000000,64.312439 1.000000,38.624878 1.331184,12.650053 
	C3.273627,10.576666 4.878692,8.784904 6.497789,7.005913 
	C8.325276,4.997951 10.165382,3.001472 12.000000,1.000000 
	C100.354225,1.000000 188.708450,1.000000 277.354675,1.337976 
	C280.995972,5.114351 284.333099,8.564854 287.722748,11.962998 
	C287.941254,12.182055 288.564850,11.997050 289.000000,12.000000 
	C289.000000,38.020893 289.000000,64.041786 288.671570,90.341812 
	C284.961609,93.734444 281.558716,96.825432 278.219635,99.983864 
	C277.669556,100.504173 277.399475,101.320473 277.000000,102.000000 
	C189.312439,102.000000 101.624878,102.000000 13.645787,101.663132 
	C9.671035,97.554955 5.998863,93.772629 2.276598,90.040260 
	C2.057699,89.820770 1.434861,90.004120 1.000000,90.000000 
M61.041828,33.686764 
	C60.223064,32.947193 59.463264,31.666838 58.574425,31.569916 
	C55.956459,31.284447 53.287350,31.468048 50.508652,31.468048 
	C48.180149,40.240101 45.926109,48.731625 43.672070,57.223148 
	C43.332561,57.216923 42.993053,57.210693 42.653549,57.204464 
	C40.603321,48.748753 38.553093,40.293041 36.494686,31.803608 
	C32.863201,31.803608 29.474106,31.803608 25.726088,31.803608 
	C24.991873,44.825497 24.276211,57.518318 23.555443,70.301743 
	C26.395956,70.301743 28.499941,70.301743 30.902197,70.301743 
	C31.360256,62.009052 31.806410,53.931919 32.252560,45.854782 
	C32.426174,45.853371 32.599785,45.851955 32.773396,45.850544 
	C34.924515,53.806252 37.075634,61.761955 39.238049,69.759430 
	C41.576328,69.759430 43.672295,69.759430 45.720070,69.759430 
	C48.296062,61.532288 50.793633,53.555607 53.291199,45.578926 
	C53.484451,45.634911 53.677704,45.690899 53.870953,45.746887 
	C54.275101,53.846882 54.679245,61.946873 55.092388,70.227097 
	C57.743198,70.227097 60.147255,70.227097 62.877125,70.227097 
	C62.264030,58.122250 61.667622,46.346783 61.041828,33.686764 
M232.436844,70.338974 
	C240.920166,70.402290 249.403854,70.540596 257.886658,70.498901 
	C262.481506,70.476326 264.950806,68.064049 264.948273,63.347462 
	C264.944031,55.525417 265.023712,47.702377 264.920959,39.881687 
	C264.853333,34.730904 262.687683,32.539883 257.646759,32.480072 
	C249.825836,32.387268 242.002029,32.382347 234.181290,32.482616 
	C229.300125,32.545204 227.099838,34.689419 227.041031,39.442387 
	C226.942200,47.429630 227.016739,55.418995 227.014175,63.407467 
	C227.013123,66.708054 228.089752,69.268280 232.436844,70.338974 
M121.977226,63.371429 
	C121.977226,53.309231 121.977226,43.247028 121.977226,33.305565 
	C118.937538,33.305565 116.536003,33.305565 113.925461,33.305565 
	C113.925461,35.594711 113.925461,37.570412 113.925461,39.546116 
	C113.925461,41.618404 113.925461,43.690697 113.925461,45.939037 
	C106.402657,42.901459 101.087448,44.054222 97.664009,49.153778 
	C94.168167,54.361195 94.784660,63.408127 98.932121,67.762955 
	C102.967964,72.000587 108.077988,71.994400 114.587799,67.752335 
	C115.752144,72.922653 119.230316,69.855461 121.980881,70.169945 
	C121.980881,67.971390 121.980881,66.149948 121.977226,63.371429 
M142.052994,54.884193 
	C143.504959,54.542385 144.988632,54.298595 146.403214,53.841187 
	C151.530090,52.183399 154.300323,48.011322 154.090439,42.401329 
	C153.889816,37.038525 151.049118,33.195824 145.439835,32.521198 
	C140.100708,31.879057 134.623749,32.382904 128.930145,32.382904 
	C128.930145,45.083698 128.930145,57.449036 128.930145,69.833946 
	C131.569412,69.833946 133.953140,69.833946 136.798615,69.833946 
	C136.798615,64.755386 136.798615,60.014999 136.798615,54.940487 
	C138.558151,54.940487 139.862259,54.940487 142.052994,54.884193 
M190.893234,68.654961 
	C192.994797,69.488152 195.096344,70.321342 197.697235,71.352493 
	C197.697235,61.697273 197.697235,53.317001 197.697235,44.751579 
	C194.989990,44.751579 192.583069,44.751579 189.849045,44.751579 
	C189.849045,49.360523 189.819214,53.669819 189.858795,57.978474 
	C189.888702,61.233894 189.405121,64.356567 185.322083,64.280846 
	C181.256683,64.205452 181.551392,60.662933 181.434235,57.950237 
	C181.243820,53.540421 181.382889,49.116379 181.382889,44.361973 
	C178.206268,44.507858 175.807755,44.618008 173.729736,44.713440 
	C173.729736,51.309059 173.196579,57.341869 173.867371,63.237705 
	C174.669968,70.291901 180.942749,73.082893 187.217819,69.815392 
	C188.371002,69.214912 189.484467,68.538139 190.893234,68.654961 
M77.216827,63.539593 
	C76.530876,62.548679 75.844925,61.557766 74.635956,59.811310 
	C81.049004,59.811310 86.459862,59.811310 91.823868,59.811310 
	C92.256073,50.347691 89.035583,45.059280 82.540611,44.109085 
	C75.925827,43.141361 69.656395,47.097534 68.088264,53.548332 
	C66.760216,59.011486 67.098373,64.520798 71.965187,68.080956 
	C77.595909,72.199913 83.943924,71.783463 90.515175,69.489319 
	C90.114983,67.430313 89.812744,65.875229 89.675354,65.168381 
	C85.334656,64.712120 81.623764,64.322067 77.216827,63.539593 
M214.337967,62.866142 
	C211.703690,68.153801 207.811859,63.707413 204.197250,64.176880 
	C203.772736,65.721443 203.312424,67.396263 202.554138,70.155212 
	C207.076157,70.409996 211.004333,71.143410 214.794556,70.699364 
	C218.508011,70.264305 221.674271,68.244682 222.161270,63.807140 
	C222.635773,59.483238 220.401031,56.989273 216.742706,55.298855 
	C214.779770,54.391834 212.899139,53.306705 210.981369,52.301945 
	C211.118866,51.773045 211.256363,51.244144 211.393875,50.715244 
	C214.095444,50.715244 216.797012,50.715244 219.795258,50.715244 
	C220.262619,49.042614 220.727402,47.379192 221.582275,44.319710 
	C216.854095,44.557934 212.736603,43.957001 209.298737,45.214306 
	C206.886826,46.096394 204.045364,49.422752 203.887482,51.821552 
	C203.732666,54.174034 206.442474,57.005608 208.440277,59.109070 
	C209.816360,60.557915 212.121719,61.124142 214.337967,62.866142 
M161.574295,32.935574 
	C160.714905,33.594296 159.114883,34.243404 159.106201,34.913170 
	C158.953842,46.650795 158.996109,58.390953 158.996109,70.201111 
	C161.961029,70.201111 164.366592,70.201111 166.724197,70.201111 
	C166.724197,57.652203 166.724197,45.420204 166.724197,32.934162 
	C165.138657,32.934162 163.832993,32.934162 161.574295,32.935574 
z"/>
<path fill="#000000" opacity="1.000000" stroke="none" 
	d="
M1.000000,90.479172 
	C1.434861,90.004120 2.057699,89.820770 2.276598,90.040260 
	C5.998863,93.772629 9.671035,97.554955 13.177130,101.663132 
	C9.078017,102.000000 5.156034,102.000000 1.000000,102.000000 
	C1.000000,98.321404 1.000000,94.639877 1.000000,90.479172 
z"/>
<path fill="#000000" opacity="1.000000" stroke="none" 
	d="
M277.479187,102.000000 
	C277.399475,101.320473 277.669556,100.504173 278.219635,99.983864 
	C281.558716,96.825432 284.961609,93.734444 288.671570,90.810471 
	C289.000000,94.591972 289.000000,98.183937 289.000000,102.000000 
	C285.321228,102.000000 281.639801,102.000000 277.479187,102.000000 
z"/>
<path fill="#000000" opacity="1.000000" stroke="none" 
	d="
M11.517044,1.000000 
	C10.165382,3.001472 8.325276,4.997951 6.497789,7.005913 
	C4.878692,8.784904 3.273627,10.576666 1.331184,12.181396 
	C1.000000,8.412791 1.000000,4.825583 1.000000,1.000000 
	C4.342551,1.000000 7.688319,1.000000 11.517044,1.000000 
z"/>
<path fill="#000000" opacity="1.000000" stroke="none" 
	d="
M289.000000,11.517044 
	C288.564850,11.997050 287.941254,12.182055 287.722748,11.962998 
	C284.333099,8.564854 280.995972,5.114351 277.823364,1.337976 
	C281.587219,1.000000 285.174408,1.000000 289.000000,1.000000 
	C289.000000,4.342551 289.000000,7.688319 289.000000,11.517044 
z"/>
<path fill="#FCF4F5" opacity="1.000000" stroke="none" 
	d="
M61.056519,34.129040 
	C61.667622,46.346783 62.264030,58.122250 62.877125,70.227097 
	C60.147255,70.227097 57.743198,70.227097 55.092388,70.227097 
	C54.679245,61.946873 54.275101,53.846882 53.870953,45.746887 
	C53.677704,45.690899 53.484451,45.634911 53.291199,45.578926 
	C50.793633,53.555607 48.296062,61.532288 45.720070,69.759430 
	C43.672295,69.759430 41.576328,69.759430 39.238049,69.759430 
	C37.075634,61.761955 34.924515,53.806252 32.773396,45.850544 
	C32.599785,45.851955 32.426174,45.853371 32.252560,45.854782 
	C31.806410,53.931919 31.360256,62.009052 30.902197,70.301743 
	C28.499941,70.301743 26.395956,70.301743 23.555443,70.301743 
	C24.276211,57.518318 24.991873,44.825497 25.726088,31.803608 
	C29.474106,31.803608 32.863201,31.803608 36.494686,31.803608 
	C38.553093,40.293041 40.603321,48.748753 42.653549,57.204464 
	C42.993053,57.210693 43.332561,57.216923 43.672070,57.223148 
	C45.926109,48.731625 48.180149,40.240101 50.508652,31.468048 
	C53.287350,31.468048 55.956459,31.284447 58.574425,31.569916 
	C59.463264,31.666838 60.223064,32.947193 61.056519,34.129040 
z"/>
<path fill="#FAF5F3" opacity="1.000000" stroke="none" 
	d="
M232.025162,70.253052 
	C228.089752,69.268280 227.013123,66.708054 227.014175,63.407467 
	C227.016739,55.418995 226.942200,47.429630 227.041031,39.442387 
	C227.099838,34.689419 229.300125,32.545204 234.181290,32.482616 
	C242.002029,32.382347 249.825836,32.387268 257.646759,32.480072 
	C262.687683,32.539883 264.853333,34.730904 264.920959,39.881687 
	C265.023712,47.702377 264.944031,55.525417 264.948273,63.347462 
	C264.950806,68.064049 262.481506,70.476326 257.886658,70.498901 
	C249.403854,70.540596 240.920166,70.402290 232.025162,70.253052 
M257.355499,55.842335 
	C258.818237,55.767838 260.280975,55.693344 261.995483,55.606026 
	C261.995483,52.907467 261.995483,50.482044 261.995483,47.324226 
	C258.132233,47.324226 254.421219,47.324226 250.232056,47.324226 
	C250.232056,43.000023 250.232056,39.406666 250.232056,35.746918 
	C247.292130,35.746918 244.854904,35.746918 241.890762,35.746918 
	C241.890762,39.744068 241.890762,43.485020 241.890762,47.608994 
	C237.735397,47.608994 234.109116,47.608994 230.285934,47.608994 
	C230.285934,50.431656 230.285934,52.855766 230.285934,55.859451 
	C234.215591,55.859451 237.949020,55.859451 242.131592,55.859451 
	C242.131592,60.001354 242.131592,63.583534 242.131592,67.252556 
	C245.040451,67.252556 247.465408,67.252556 250.446686,67.252556 
	C250.446686,63.441097 250.446686,59.869503 250.446686,55.842388 
	C252.789658,55.842388 254.592331,55.842388 257.355499,55.842335 
z"/>
<path fill="#FDF7F8" opacity="1.000000" stroke="none" 
	d="
M121.979050,63.849972 
	C121.980881,66.149948 121.980881,67.971390 121.980881,70.169945 
	C119.230316,69.855461 115.752144,72.922653 114.587799,67.752335 
	C108.077988,71.994400 102.967964,72.000587 98.932121,67.762955 
	C94.784660,63.408127 94.168167,54.361195 97.664009,49.153778 
	C101.087448,44.054222 106.402657,42.901459 113.925461,45.939037 
	C113.925461,43.690697 113.925461,41.618404 113.925461,39.546116 
	C113.925461,37.570412 113.925461,35.594711 113.925461,33.305565 
	C116.536003,33.305565 118.937538,33.305565 121.977226,33.305565 
	C121.977226,43.247028 121.977226,53.309231 121.979050,63.849972 
M103.604057,56.655357 
	C104.126541,63.074657 106.580139,65.766487 110.530090,64.172211 
	C114.875694,62.418236 114.315483,58.459988 113.712051,55.202610 
	C113.373215,53.373623 111.233337,50.850601 109.535133,50.515820 
	C106.038513,49.826488 104.192032,52.406853 103.604057,56.655357 
z"/>
<path fill="#FDF7F7" opacity="1.000000" stroke="none" 
	d="
M141.609680,54.912338 
	C139.862259,54.940487 138.558151,54.940487 136.798615,54.940487 
	C136.798615,60.014999 136.798615,64.755386 136.798615,69.833946 
	C133.953140,69.833946 131.569412,69.833946 128.930145,69.833946 
	C128.930145,57.449036 128.930145,45.083698 128.930145,32.382904 
	C134.623749,32.382904 140.100708,31.879057 145.439835,32.521198 
	C151.049118,33.195824 153.889816,37.038525 154.090439,42.401329 
	C154.300323,48.011322 151.530090,52.183399 146.403214,53.841187 
	C144.988632,54.298595 143.504959,54.542385 141.609680,54.912338 
M143.973083,48.590401 
	C144.408813,46.089878 146.050049,42.545300 144.999359,41.332134 
	C143.400635,39.486168 139.936462,39.255814 137.073975,38.273933 
	C137.073975,43.049854 137.073975,46.399986 137.073975,50.280880 
	C139.467773,49.772030 141.358246,49.370171 143.973083,48.590401 
z"/>
<path fill="#FCF2F3" opacity="1.000000" stroke="none" 
	d="
M190.754761,68.275772 
	C189.484467,68.538139 188.371002,69.214912 187.217819,69.815392 
	C180.942749,73.082893 174.669968,70.291901 173.867371,63.237705 
	C173.196579,57.341869 173.729736,51.309059 173.729736,44.713440 
	C175.807755,44.618008 178.206268,44.507858 181.382889,44.361973 
	C181.382889,49.116379 181.243820,53.540421 181.434235,57.950237 
	C181.551392,60.662933 181.256683,64.205452 185.322083,64.280846 
	C189.405121,64.356567 189.888702,61.233894 189.858795,57.978474 
	C189.819214,53.669819 189.849045,49.360523 189.849045,44.751579 
	C192.583069,44.751579 194.989990,44.751579 197.697235,44.751579 
	C197.697235,53.317001 197.697235,61.697273 197.697235,71.352493 
	C195.096344,70.321342 192.994797,69.488152 190.754761,68.275772 
z"/>
<path fill="#FDF9F9" opacity="1.000000" stroke="none" 
	d="
M77.564850,63.735802 
	C81.623764,64.322067 85.334656,64.712120 89.675354,65.168381 
	C89.812744,65.875229 90.114983,67.430313 90.515175,69.489319 
	C83.943924,71.783463 77.595909,72.199913 71.965187,68.080956 
	C67.098373,64.520798 66.760216,59.011486 68.088264,53.548332 
	C69.656395,47.097534 75.925827,43.141361 82.540611,44.109085 
	C89.035583,45.059280 92.256073,50.347691 91.823868,59.811310 
	C86.459862,59.811310 81.049004,59.811310 74.635956,59.811310 
	C75.844925,61.557766 76.530876,62.548679 77.564850,63.735802 
M78.717964,54.644180 
	C80.586006,54.644180 82.454041,54.644180 84.322083,54.644180 
	C84.536568,54.080868 84.751060,53.517551 84.965553,52.954239 
	C83.514366,51.714703 82.228371,49.931179 80.555069,49.423031 
	C79.400970,49.072548 77.329529,50.132710 76.345909,51.191925 
	C74.690926,52.974113 74.427818,54.854183 78.717964,54.644180 
z"/>
<path fill="#FCF5F5" opacity="1.000000" stroke="none" 
	d="
M214.174866,62.475494 
	C212.121719,61.124142 209.816360,60.557915 208.440277,59.109070 
	C206.442474,57.005608 203.732666,54.174034 203.887482,51.821552 
	C204.045364,49.422752 206.886826,46.096394 209.298737,45.214306 
	C212.736603,43.957001 216.854095,44.557934 221.582275,44.319710 
	C220.727402,47.379192 220.262619,49.042614 219.795258,50.715244 
	C216.797012,50.715244 214.095444,50.715244 211.393875,50.715244 
	C211.256363,51.244144 211.118866,51.773045 210.981369,52.301945 
	C212.899139,53.306705 214.779770,54.391834 216.742706,55.298855 
	C220.401031,56.989273 222.635773,59.483238 222.161270,63.807140 
	C221.674271,68.244682 218.508011,70.264305 214.794556,70.699364 
	C211.004333,71.143410 207.076157,70.409996 202.554138,70.155212 
	C203.312424,67.396263 203.772736,65.721443 204.197250,64.176880 
	C207.811859,63.707413 211.703690,68.153801 214.174866,62.475494 
z"/>
<path fill="#FEFCFC" opacity="1.000000" stroke="none" 
	d="
M162.050812,32.934868 
	C163.832993,32.934162 165.138657,32.934162 166.724197,32.934162 
	C166.724197,45.420204 166.724197,57.652203 166.724197,70.201111 
	C164.366592,70.201111 161.961029,70.201111 158.996109,70.201111 
	C158.996109,58.390953 158.953842,46.650795 159.106201,34.913170 
	C159.114883,34.243404 160.714905,33.594296 162.050812,32.934868 
z"/>
<path fill="#31AB38" opacity="1.000000" stroke="none" 
	d="
M256.875244,55.842361 
	C254.592331,55.842388 252.789658,55.842388 250.446686,55.842388 
	C250.446686,59.869503 250.446686,63.441097 250.446686,67.252556 
	C247.465408,67.252556 245.040451,67.252556 242.131592,67.252556 
	C242.131592,63.583534 242.131592,60.001354 242.131592,55.859451 
	C237.949020,55.859451 234.215591,55.859451 230.285934,55.859451 
	C230.285934,52.855766 230.285934,50.431656 230.285934,47.608994 
	C234.109116,47.608994 237.735397,47.608994 241.890762,47.608994 
	C241.890762,43.485020 241.890762,39.744068 241.890762,35.746918 
	C244.854904,35.746918 247.292130,35.746918 250.232056,35.746918 
	C250.232056,39.406666 250.232056,43.000023 250.232056,47.324226 
	C254.421219,47.324226 258.132233,47.324226 261.995483,47.324226 
	C261.995483,50.482044 261.995483,52.907467 261.995483,55.606026 
	C260.280975,55.693344 258.818237,55.767838 256.875244,55.842361 
z"/>
<path fill="#C20D1D" opacity="1.000000" stroke="none" 
	d="
M103.663879,56.238087 
	C104.192032,52.406853 106.038513,49.826488 109.535133,50.515820 
	C111.233337,50.850601 113.373215,53.373623 113.712051,55.202610 
	C114.315483,58.459988 114.875694,62.418236 110.530090,64.172211 
	C106.580139,65.766487 104.126541,63.074657 103.663879,56.238087 
z"/>
<path fill="#C20B1B" opacity="1.000000" stroke="none" 
	d="
M143.610901,48.779358 
	C141.358246,49.370171 139.467773,49.772030 137.073975,50.280880 
	C137.073975,46.399986 137.073975,43.049854 137.073975,38.273933 
	C139.936462,39.255814 143.400635,39.486168 144.999359,41.332134 
	C146.050049,42.545300 144.408813,46.089878 143.610901,48.779358 
z"/>
<path fill="#CB2E3C" opacity="1.000000" stroke="none" 
	d="
M78.321915,54.643097 
	C74.427818,54.854183 74.690926,52.974113 76.345909,51.191925 
	C77.329529,50.132710 79.400970,49.072548 80.555069,49.423031 
	C82.228371,49.931179 83.514366,51.714703 84.965553,52.954239 
	C84.751060,53.517551 84.536568,54.080868 84.322083,54.644180 
	C82.454041,54.644180 80.586006,54.644180 78.321915,54.643097 
z"/>
</svg>