<svg xmlns="http://www.w3.org/2000/svg" xmlns:xlink="http://www.w3.org/1999/xlink" width="50px" height="50px" viewBox="0 0 50 50" version="1.1">
<g id="surface1">
<path style=" stroke:none;fill-rule:nonzero;fill:rgb(17.254902%,69.411765%,20.392157%);fill-opacity:1;" d="M 44.730469 0 C 44.851562 -0.0078125 44.96875 0.0546875 45.027344 0.160156 C 45.089844 0.265625 45.085938 0.398438 45.015625 0.5 L 32.691406 17.238281 C 32.601562 17.339844 32.472656 17.398438 32.335938 17.398438 C 32.199219 17.398438 32.070312 17.339844 31.980469 17.238281 L 27.636719 12.394531 C 27.53125 12.285156 27.378906 12.230469 27.226562 12.242188 C 27.074219 12.257812 26.9375 12.339844 26.851562 12.464844 L 24.214844 15.8125 C 24.132812 16.003906 24.160156 16.222656 24.289062 16.382812 L 32.125 24.503906 C 32.214844 24.605469 32.34375 24.664062 32.480469 24.664062 C 32.617188 24.664062 32.746094 24.605469 32.835938 24.503906 L 48.222656 7.195312 C 48.3125 7.097656 48.453125 7.0625 48.578125 7.109375 C 48.703125 7.15625 48.785156 7.273438 48.792969 7.410156 L 48.792969 49.507812 C 48.796875 49.601562 48.761719 49.695312 48.691406 49.765625 C 48.625 49.832031 48.53125 49.867188 48.433594 49.863281 L 1.566406 49.863281 C 1.46875 49.867188 1.375 49.832031 1.308594 49.765625 C 1.238281 49.695312 1.203125 49.601562 1.207031 49.507812 L 1.207031 0.355469 C 1.203125 0.261719 1.238281 0.167969 1.308594 0.0976562 C 1.375 0.03125 1.46875 -0.00390625 1.566406 0 Z M 32.621094 28.421875 C 30.5 28.382812 28.457031 29.214844 26.964844 30.722656 C 25.472656 32.226562 24.660156 34.28125 24.714844 36.398438 C 24.714844 41.316406 28.277344 44.449219 32.90625 44.449219 C 35.050781 44.503906 37.152344 43.851562 38.890625 42.597656 C 39.050781 42.449219 39.082031 42.207031 38.960938 42.027344 L 37.679688 40.105469 C 37.535156 39.9375 37.289062 39.90625 37.109375 40.03125 C 35.996094 40.792969 34.683594 41.214844 33.335938 41.242188 C 30.839844 41.242188 29.273438 39.675781 28.988281 37.824219 C 28.992188 37.746094 29.054688 37.6875 29.132812 37.683594 L 39.886719 37.683594 C 40.117188 37.667969 40.300781 37.484375 40.316406 37.253906 L 40.316406 36.828125 C 40.316406 31.839844 37.179688 28.421875 32.621094 28.421875 Z M 22.007812 25.714844 C 19.84375 23.945312 17.105469 23.035156 14.316406 23.152344 C 9.472656 23.152344 6.480469 26 6.480469 29.417969 C 6.480469 37.183594 18.304688 34.691406 18.304688 38.324219 C 18.304688 39.460938 17.164062 40.601562 14.742188 40.601562 C 12.441406 40.621094 10.222656 39.753906 8.546875 38.179688 C 8.445312 38.085938 8.308594 38.039062 8.171875 38.054688 C 8.035156 38.066406 7.914062 38.140625 7.832031 38.25 L 5.980469 40.816406 C 5.859375 40.996094 5.890625 41.238281 6.050781 41.386719 C 7.976562 43.167969 10.683594 44.378906 14.457031 44.378906 C 20.015625 44.378906 22.71875 41.527344 22.863281 37.824219 C 22.863281 30.132812 11.039062 32.339844 11.039062 29.0625 C 11.039062 27.851562 12.105469 26.996094 13.960938 26.996094 C 16 26.96875 17.988281 27.648438 19.585938 28.921875 C 19.679688 28.996094 19.800781 29.035156 19.921875 29.019531 C 20.042969 29.007812 20.152344 28.945312 20.226562 28.847656 L 22.078125 26.355469 C 22.15625 26.261719 22.191406 26.140625 22.179688 26.019531 C 22.164062 25.898438 22.105469 25.789062 22.007812 25.714844 Z M 32.691406 31.554688 C 34.628906 31.449219 36.304688 32.898438 36.46875 34.832031 C 36.464844 34.910156 36.402344 34.96875 36.324219 34.976562 L 29.058594 34.976562 C 28.984375 34.96875 28.921875 34.910156 28.917969 34.832031 C 29.15625 32.9375 30.78125 31.523438 32.691406 31.554688 Z M 32.691406 31.554688 "/>
</g>
</svg>
